<svg id="Capa_1" enable-background="new 0 0 489.995 489.995" height="512" viewBox="0 0 489.995 489.995" width="512" xmlns="http://www.w3.org/2000/svg"><g><g fill="#d6d8e0"><path d="m99.423 198.609h-75.423c-4.143 0-7.5-3.358-7.5-7.5s3.357-7.5 7.5-7.5h75.423c4.143 0 7.5 3.358 7.5 7.5s-3.358 7.5-7.5 7.5z"/><path d="m390.571 382.459h-126.571c-4.143 0-7.5-3.358-7.5-7.5s3.357-7.5 7.5-7.5h126.571c4.143 0 7.5 3.358 7.5 7.5s-3.357 7.5-7.5 7.5z"/><path d="m288 360.748h-91c-4.143 0-7.5-3.358-7.5-7.5s3.357-7.5 7.5-7.5h91c4.143 0 7.5 3.358 7.5 7.5s-3.358 7.5-7.5 7.5z"/><path d="m99.423 382.459h-90.423c-4.143 0-7.5-3.358-7.5-7.5s3.357-7.5 7.5-7.5h90.423c4.143 0 7.5 3.358 7.5 7.5s-3.358 7.5-7.5 7.5z"/></g><path d="m99.42 183.609c-54.91 0-99.42 44.51-99.42 99.42s44.51 99.43 99.42 99.43 99.43-44.52 99.43-99.43-44.52-99.42-99.43-99.42zm0 171.25c-39.67 0-71.82-32.16-71.82-71.83s32.15-71.82 71.82-71.82 71.83 32.15 71.83 71.82-32.16 71.83-71.83 71.83z" fill="#526071"/><path d="m390.565 183.609c-54.91 0-99.42 44.51-99.42 99.42s44.51 99.43 99.42 99.43 99.43-44.52 99.43-99.43-44.52-99.42-99.43-99.42zm0 171.25c-39.67 0-71.82-32.16-71.82-71.83s32.15-71.82 71.82-71.82 71.83 32.15 71.83 71.82-32.16 71.83-71.83 71.83z" fill="#526071"/><path d="m390.577 290.533c-2.719 0-5.341-1.482-6.673-4.065l-86.583-167.995c-1.198-2.325-1.099-5.106.263-7.34 1.362-2.233 3.789-3.596 6.404-3.596h57.142c13.588 0 24.643 11.054 24.643 24.642s-11.055 24.642-24.643 24.642h-9.143c-4.143 0-7.5-3.358-7.5-7.5s3.357-7.5 7.5-7.5h9.143c5.317 0 9.643-4.325 9.643-9.642s-4.325-9.642-9.643-9.642h-44.839l80.947 157.059c1.897 3.682.451 8.205-3.231 10.103-1.099.566-2.273.834-3.43.834z" fill="#de5866"/><path d="m244.561 290.532h-145.138c-2.746 0-5.272-1.5-6.586-3.912s-1.205-5.348.284-7.655l81.141-125.71c1.382-2.14 3.755-3.433 6.302-3.433h145.441c2.748 0 5.276 1.503 6.589 3.918s1.2 5.354-.294 7.66l-81.443 125.71c-1.383 2.134-3.753 3.422-6.296 3.422zm-131.371-15h127.294l71.725-110.71h-127.56z" fill="#de5866"/><path d="m198.51 122.652h15v169.643h-15z" fill="#de5866" transform="matrix(.891 -.455 .455 .891 -71.788 116.295)"/><path d="m193.135 139.415h-39.513c-13.625 0-26.065-8.545-30.955-21.263-1.487-3.866.442-8.206 4.309-9.692 3.864-1.487 8.205.443 9.691 4.309 2.679 6.966 9.492 11.646 16.955 11.646h39.513c4.143 0 7.5 3.358 7.5 7.5s-3.358 7.5-7.5 7.5z" fill="#526071"/><path d="m140 163.749h-83c-4.143 0-7.5-3.358-7.5-7.5s3.357-7.5 7.5-7.5h83c4.143 0 7.5 3.358 7.5 7.5s-3.358 7.5-7.5 7.5z" fill="#d6d8e0"/><path d="m248.485 320.267h-7.522l10.767-35.035c1.217-3.959-1.007-8.155-4.966-9.372-3.956-1.215-8.155 1.005-9.372 4.966l-12.121 39.442h-8.148c-4.143 0-7.5 3.358-7.5 7.5s3.357 7.5 7.5 7.5h31.362c4.143 0 7.5-3.358 7.5-7.5s-3.357-7.501-7.5-7.501z" fill="#526071"/></g></svg>