<svg id="Capa_1" enable-background="new 0 0 490 490" height="512" viewBox="0 0 490 490" width="512" xmlns="http://www.w3.org/2000/svg"><g><path d="m429.103 439.882h-427.959l206.253-357.245 7.721-13.373 7.721 13.373z" fill="#77bf9a"/><path d="m215.123 69.263-213.978 370.621h75.797z" fill="#66a582"/><path d="m215.123 246.667-68.507 193.217h137.015z" fill="#526071"/><path d="m381.748 451.209c-43.237 0-54.044-74.666-12.353-116.358s23.162-88.015 23.162-88.015 55.588 60.221 40.147 126.618c0 0 29.338-26.25 29.338-69.485 0 0 43.965 83.33 19.302 126.873-7.235 12.773-21.08 20.367-35.759 20.367z" fill="#de5866"/><path d="m222.839 82.637v244.807c0 4.262-3.449 7.721-7.721 7.721-4.262 0-7.721-3.459-7.721-7.721v-244.807l7.721-13.373z" fill="#526071"/><g fill="#d09d3f"><path d="m360.137 486.688c-2.776 0-5.457-1.5-6.839-4.127-1.987-3.774-.537-8.442 3.236-10.428l29.339-15.439c3.775-1.988 8.443-.535 10.428 3.237 1.987 3.774.537 8.442-3.236 10.428l-29.339 15.439c-1.147.604-2.378.89-3.589.89z"/><path d="m466.665 486.688c-1.211 0-2.442-.286-3.589-.89l-29.338-15.439c-3.773-1.986-5.223-6.655-3.236-10.428 1.985-3.773 6.654-5.224 10.428-3.237l29.338 15.439c3.773 1.986 5.223 6.655 3.236 10.428-1.381 2.627-4.063 4.127-6.839 4.127z"/><path d="m413.402 490c-4.265 0-7.721-3.457-7.721-7.721v-18.753c0-4.264 3.456-7.721 7.721-7.721s7.721 3.457 7.721 7.721v18.753c0 4.264-3.457 7.721-7.721 7.721z"/></g><g fill="#f5dc60"><path d="m462.517 20.312c-19.199-17.102-44.688-22.617-67.935-17.074 9.19 1.529 18.075 5.576 25.546 12.231 21.066 18.765 22.932 51.055 4.167 72.122-18.765 21.066-51.055 22.932-72.122 4.167-7.471-6.655-12.514-15.014-15.092-23.967-2.828 23.731 5.585 48.415 24.784 65.517 31.203 27.794 79.03 25.031 106.824-6.172s25.031-79.03-6.172-106.824z"/><g><path d="m311.647 30.882h-23.161v-23.161c0-4.264-3.456-7.721-7.721-7.721s-7.721 3.457-7.721 7.721v23.161h-23.162c-4.265 0-7.721 3.457-7.721 7.721s3.456 7.721 7.721 7.721h23.162v23.161c0 4.264 3.456 7.721 7.721 7.721s7.721-3.457 7.721-7.721v-23.161h23.161c4.265 0 7.721-3.457 7.721-7.721s-3.456-7.721-7.721-7.721z"/><path d="m99.493 118.897h-23.162v-23.161c0-4.264-3.456-7.721-7.721-7.721s-7.721 3.457-7.721 7.721v23.161h-23.161c-4.265 0-7.721 3.457-7.721 7.721s3.456 7.721 7.721 7.721h23.161v23.161c0 4.264 3.456 7.721 7.721 7.721s7.721-3.457 7.721-7.721v-23.161h23.162c4.265 0 7.721-3.457 7.721-7.721s-3.456-7.721-7.721-7.721z"/></g><path d="m414.004 438.269c-25 0-11-37-2-46 0 0 35 46 2 46z"/></g></g></svg>