<svg id="Capa_1" enable-background="new 0 0 512 512" height="512" viewBox="0 0 512 512" width="512" xmlns="http://www.w3.org/2000/svg"><g><path d="m382.388 442.039c31.25 0 79.428-4.357 112.09-10.475 14.679-2.75 22.123-19.284 14.471-32.109-31.729-53.183-95.341-152.414-126.56-152.414-31.22 0-94.831 99.232-126.56 152.414-7.652 12.826-.209 29.36 14.471 32.109 32.66 6.118 80.838 10.475 112.088 10.475z" fill="#b0da87"/><path d="m321.698 119.776h-99.64v-69.407h99.64c7.155 0 11.078 8.332 6.52 13.847l-12.783 15.468c-2.585 3.127-2.585 7.65 0 10.777l12.783 15.468c4.558 5.515.635 13.847-6.52 13.847z" fill="#e68a97"/><path d="m252.13 50.369h-30.072v69.407h52.307c-17.495-12.946-23.033-48.629-22.235-69.407z" fill="#e26e7e"/><path d="m183.84 185.501h38.218v-135.132c0-7.284-5.904-13.188-13.188-13.188h-11.842c-7.283 0-13.188 5.904-13.188 13.188z" fill="#616a84"/><path d="m348.239 268.93c-31.595 32.289-69.974 92.917-92.411 130.525-7.652 12.825-.209 29.36 14.471 32.109 32.662 6.118 80.84 10.475 112.09 10.475 14.927 0 33.716-.996 52.831-2.701 3.522-15.911.953-32.766-7.558-47.033-20.238-33.919-48.893-80.085-79.423-123.375z" fill="#89d47f"/><g fill="#b0da87"><path d="m223.512 474.472c11.296-49.288-23.411-92.719-53.343-158.453-15.781-34.615-26.05-67.876-28.983-103.484 0-.001-.001-.003-.001-.005-47.745 52.167-103.215 139.977-136.407 195.609-11.981 20.082-.326 45.972 22.659 50.277 51.143 9.579 126.581 16.402 175.512 16.402 6.432.001 13.331-.12 20.563-.346z"/><path d="m401.12 408.139c-49.683-83.274-149.287-238.653-198.171-238.653-4.353 0-9.111 1.238-14.198 3.542.001.004.002.008.003.012 3.488 41.771 17.765 75.089 40.98 110.651 35.1 53.846 87.476 106.264 90.818 183.298 20.761-2.443 40.711-5.351 57.909-8.572 22.986-4.305 34.641-30.195 22.659-50.278z"/></g><path d="m162.921 410.863c-2.081 0-4.151-.861-5.634-2.546-24.311-27.633-36.241-31.759-41.189-31.759s-16.88 4.126-41.19 31.759c-2.736 3.11-7.475 3.414-10.585.677-3.109-2.736-3.413-7.475-.677-10.585 22.118-25.141 38.785-36.851 52.452-36.851 13.666 0 30.333 11.71 52.451 36.851 2.736 3.11 2.433 7.849-.677 10.585-1.425 1.254-3.191 1.869-4.951 1.869z" fill="#89d47f"/><path d="m320.553 466.989c-3.342-77.034-55.718-129.452-90.818-183.298-23.215-35.561-37.492-68.88-40.98-110.651-13.874 6.281-30.209 20.526-47.569 39.495 2.932 35.608 13.201 68.869 28.983 103.484 29.933 65.735 64.639 109.166 53.343 158.453 29.287-.917 64.179-3.616 97.041-7.483z" fill="#d1986f"/></g></svg>