<svg height="464pt" viewBox="0 0 464.1748 464" width="464pt" xmlns="http://www.w3.org/2000/svg"><path d="m160 384.085938c0 44.183593-35.816406 80-80 80s-80-35.816407-80-80c0-44.179688 35.816406-80 80-80s80 35.820312 80 80zm0 0" fill="#fbedbf"/><path d="m160 80.085938c0 44.183593-35.816406 80-80 80s-80-35.816407-80-80c0-44.179688 35.816406-80.0000005 80-80.0000005s80 35.8203125 80 80.0000005zm0 0" fill="#fbedbf"/><path d="m464 384.085938c0 44.183593-35.816406 80-80 80s-80-35.816407-80-80c0-44.179688 35.816406-80 80-80s80 35.820312 80 80zm0 0" fill="#fbedbf"/><path d="m384 .0859375c-29.523438.0039063-56.648438 16.2656245-70.558594 42.3046875-13.910156 26.042969-12.347656 57.628906 4.0625 82.167969l-5.503906 35.527344 37.304688-8c29.648437 14.363281 65.074218 9.078124 89.238281-13.3125 24.167969-22.390626 32.140625-57.308594 20.082031-87.964844-12.058594-30.660156-41.679688-50.792969-74.625-50.7226565zm0 0" fill="#fbedbf"/><path d="m312 232.085938c0 44.183593-35.816406 80-80 80s-80-35.816407-80-80c0-44.179688 35.816406-80 80-80s80 35.820312 80 80zm0 0" fill="#fbedbf"/><path d="m112 80.085938c0 17.675781-14.328125 32-32 32s-32-14.324219-32-32c0-17.671876 14.328125-32 32-32s32 14.328124 32 32zm0 0" fill="#ea6b65"/><path d="m48 352.085938h64v64h-64zm0 0" fill="#fbb540"/><path d="m384 48.085938-32 56h64zm0 0" fill="#aac16b"/><path d="m384 344.085938-32 24v32l32 24 32-24v-32zm0 0" fill="#a8d6da"/><path d="m280 288.085938c-5.261719-15.78125-14.125-30.121094-25.886719-41.886719l-6.113281-6.113281h-32l-6.113281 6.113281c-11.761719 11.765625-20.625 26.105469-25.886719 41.886719v5.601562c27.277344 24.585938 68.722656 24.585938 96 0zm0 0" fill="#6cbae5"/><path d="m130.339844 141.746094 11.316406-11.3125 24 24-11.3125 11.316406zm0 0" fill="#fbd699"/><path d="m130.34375 322.429688 24-24 11.316406 11.3125-24.003906 24.003906zm0 0" fill="#fbd699"/><g fill="#aae5c8"><path d="m56 192.085938h16v16h-16zm0 0"/><path d="m56 224.085938h16v16h-16zm0 0"/><path d="m56 256.085938h16v16h-16zm0 0"/><path d="m416 192.085938h16v16h-16zm0 0"/><path d="m416 224.085938h16v16h-16zm0 0"/><path d="m416 256.085938h16v16h-16zm0 0"/><path d="m192 32.085938h16v16h-16zm0 0"/><path d="m224 32.085938h16v16h-16zm0 0"/><path d="m256 32.085938h16v16h-16zm0 0"/><path d="m192 416.085938h16v16h-16zm0 0"/><path d="m224 416.085938h16v16h-16zm0 0"/><path d="m256 416.085938h16v16h-16zm0 0"/></g><path d="m298.34375 309.746094 11.316406-11.3125 24 24-11.3125 11.316406zm0 0" fill="#fbd699"/><path d="m264 224.085938c0 17.675781-14.328125 32-32 32s-32-14.324219-32-32c0-17.671876 14.328125-32 32-32s32 14.328124 32 32zm0 0" fill="#6cbae5"/></svg>