<?xml version="1.0"?>
<svg xmlns="http://www.w3.org/2000/svg" xmlns:xlink="http://www.w3.org/1999/xlink" xmlns:svgjs="http://svgjs.com/svgjs" version="1.1" width="512" height="512" x="0" y="0" viewBox="0 0 512 512" style="enable-background:new 0 0 512 512" xml:space="preserve" class=""><g><g xmlns="http://www.w3.org/2000/svg"><path d="m384.533 176.733c8.284 0 15 6.716 15 15v62.322c0 17.962 7 34.857 19.71 47.574 18.372 18.382 28.49 42.809 28.49 68.781v126.59c-97.607 0-176.733-79.126-176.733-176.733v-128.534c0-8.284 6.716-15 15-15z" fill="#481c05" data-original="#ff9358" style="" class=""/><path d="m127.467 176.733c-8.284 0-15 6.716-15 15v62.322c0 17.962-7 34.857-19.71 47.574-18.372 18.382-28.49 42.809-28.49 68.781v126.59c97.607 0 176.733-79.126 176.733-176.733v-128.534c0-8.284-6.716-15-15-15z" fill="#7e4907" data-original="#ffbf6e" style="" class=""/><path d="m432.733 512h-80.333c-8.284 0-15-6.716-15-15v-129.578c0-5.191 2.685-10.014 7.097-12.749 4.413-2.735 9.926-2.994 14.575-.686 8.678 4.31 88.661 44.753 88.661 142.996 0 8.285-6.715 15.017-15 15.017z" fill="#001100" data-original="#001100" style="" class=""/><path d="m159.6 512h-80.333c-8.284 0-15-6.716-15-15 0-98.268 80.078-138.749 88.662-143.012 4.648-2.309 10.162-2.05 14.575.686 4.412 2.735 7.097 7.558 7.097 12.749v129.577c-.001 8.284-6.717 15-15.001 15z" fill="#184058" data-original="#163230" style="" class=""/><path d="m288.134 337.4c24.91 0 48.777 5.581 70.939 16.588 5.101 2.534 8.327 7.738 8.327 13.434v129.578c0 8.284-6.716 15-15 15h-192.8c-8.284 0-15-6.716-15-15v-129.578c0-5.696 3.226-10.9 8.327-13.434 22.161-11.007 46.028-16.588 70.939-16.588z" fill="#6dcde3" data-original="#2e515d" style="" class=""/><path d="m359.073 353.988c-22.162-11.007-46.029-16.588-70.939-16.588h-32.134v174.6h96.4c8.284 0 15-6.716 15-15v-129.578c0-5.695-3.226-10.9-8.327-13.434z" fill="#184058" data-original="#163230" style="" class=""/><path d="m256 431.667c-25.989 0-47.133-21.144-47.133-47.133v-96.4c0-8.284 6.716-15 15-15h64.267c8.284 0 15 6.716 15 15v96.4c0 25.988-21.145 47.133-47.134 47.133z" fill="#ffc2be" data-original="#ffc2be" style="" class=""/><path d="m303.134 384.533v-96.4c0-8.284-6.716-15-15-15h-32.134v158.533c25.989.001 47.134-21.144 47.134-47.133z" fill="#ffa0a9" data-original="#ffa0a9" style="" class=""/><path d="m127.467 144.6h-32.134c-25.989 0-47.133 21.144-47.133 47.133s21.144 47.133 47.133 47.133h32.134c8.284 0 15-6.716 15-15v-64.266c0-8.284-6.716-15-15-15z" fill="#ffc2be" data-original="#ffc2be" style="" class=""/><path d="m416.667 144.6h-32.134c-8.284 0-15 6.716-15 15v64.267c0 8.284 6.716 15 15 15h32.134c25.989 0 47.133-21.144 47.133-47.133s-21.144-47.134-47.133-47.134z" fill="#ffa0a9" data-original="#ffa0a9" style="" class=""/><path d="m288.134 303.133h-64.268c-61.171 0-111.399-49.387-111.399-111.4v-32.142c0-3.979 1.581-7.796 4.396-10.609 37.178-37.161 86.592-57.627 139.137-57.627s101.959 20.466 139.138 57.628c2.814 2.813 4.396 6.629 4.396 10.609v32.142c-.001 61.905-50.122 111.399-111.4 111.399z" fill="#ffe2d2" data-original="#ffe2d2" style="" class=""/><path d="m256 91.355v211.778h32.134c61.278 0 111.399-49.494 111.399-111.4v-32.142c0-3.979-1.581-7.796-4.396-10.609-37.178-37.161-86.592-57.627-139.137-57.627z" fill="#ffc2be" data-original="#ffc2be" style="" class=""/><path d="m256 238.867c-12.17 0-23.645-3.837-33.184-11.097-6.593-5.017-7.869-14.428-2.853-21.021 5.017-6.593 14.428-7.87 21.021-2.853 4.272 3.251 9.465 4.97 15.016 4.97s10.743-1.719 15.016-4.97c6.591-5.016 16.003-3.741 21.021 2.853 5.017 6.593 3.74 16.004-2.853 21.021-9.539 7.26-21.014 11.097-33.184 11.097z" fill="#ffc2be" data-original="#ffc2be" style="" class=""/><path d="m256 46.067c-8.284 0-15-6.716-15-15v-16.067c0-8.284 6.716-15 15-15s15 6.716 15 15v16.067c0 8.284-6.716 15-15 15z" fill="#6dcde3" data-original="#d0e36d" style="" class=""/><path d="m384.533 174.6c-4.281 0-8.144-1.793-10.877-4.671-64.959-64.633-170.354-64.632-235.312 0-2.733 2.877-6.595 4.671-10.877 4.671-8.26 0-14.96-6.676-15-14.927 0-.024 0-.048 0-.073v-48.2c0-53.475 43.531-95.333 95.333-95.333h96.4c51.759 0 95.333 41.798 95.333 95.333v48.2c0 8.284-6.716 15-15 15z" fill="#184058" data-original="#80d385" style="" class=""/><path d="m384.533 174.6c8.284 0 15-6.716 15-15v-48.2c0-53.535-43.574-95.333-95.333-95.333h-48.2v105.388c42.588 0 85.177 16.158 117.656 48.474 2.734 2.878 6.596 4.671 10.877 4.671z" fill="#0e3d70" data-original="#37c9a8" style="" class=""/><path d="m100.796 186.275c-5.859-5.856-5.861-15.354-.005-21.213l16.067-16.074c37.183-37.167 86.596-57.633 139.142-57.633 52.545 0 101.959 20.466 139.138 57.628 9.895 9.871 16.096 16.104 16.096 16.104 5.843 5.873 5.818 15.371-.055 21.213-5.873 5.841-15.371 5.818-21.213-.055-.011-.011-6.179-6.21-16.026-16.034-65.038-65.008-170.842-65.007-235.869-.011l-16.062 16.069c-5.856 5.861-15.355 5.863-21.213.006z" fill="#6dcde3" data-original="#d0e36d" style="" class=""/><path d="m373.939 170.212c9.848 9.823 16.016 16.023 16.026 16.034 5.842 5.873 15.34 5.896 21.213.055 5.873-5.843 5.897-15.34.055-21.213 0 0-6.201-6.233-16.096-16.104-37.178-37.163-86.592-57.629-139.137-57.629v30.099c42.709.002 85.42 16.254 117.939 48.758z" fill="#184058" data-original="#80d385" style="" class=""/><path d="m256 208.867c5.551 0 10.743-1.719 15.016-4.97 6.591-5.016 16.003-3.741 21.021 2.853 5.017 6.593 3.74 16.004-2.853 21.021-9.539 7.26-21.014 11.097-33.184 11.097z" fill="#ffa0a9" data-original="#ffa0a9" style="" class=""/></g></g></svg>
